<?xml version="1.0" encoding="UTF-8" standalone="no"?>
<!-- Created with Inkscape (http://www.inkscape.org/) -->

<svg
   xmlns:dc="http://purl.org/dc/elements/1.1/"
   xmlns:cc="http://creativecommons.org/ns#"
   xmlns:rdf="http://www.w3.org/1999/02/22-rdf-syntax-ns#"
   xmlns:svg="http://www.w3.org/2000/svg"
   xmlns="http://www.w3.org/2000/svg"
   xmlns:sodipodi="http://sodipodi.sourceforge.net/DTD/sodipodi-0.dtd"
   xmlns:inkscape="http://www.inkscape.org/namespaces/inkscape"
   width="16"
   height="16"
   viewBox="0 0 4.2333334 4.2333333"
   version="1.1"
   id="svg8"
   inkscape:version="0.92.4 (5da689c313, 2019-01-14)"
   sodipodi:docname="icon - black.svg"
   inkscape:export-filename="C:\Users\Tantely\PycharmProjects\Contracts\images\icon_black.png"
   inkscape:export-xdpi="96.000008"
   inkscape:export-ydpi="96.000008">
  <defs
     id="defs2" />
  <sodipodi:namedview
     id="base"
     pagecolor="#000000"
     bordercolor="#666666"
     borderopacity="1.0"
     inkscape:pageopacity="0"
     inkscape:pageshadow="2"
     inkscape:zoom="31.678384"
     inkscape:cx="6.4128025"
     inkscape:cy="9.8814296"
     inkscape:document-units="mm"
     inkscape:current-layer="layer1"
     showgrid="true"
     inkscape:snap-page="false"
     inkscape:window-width="1920"
     inkscape:window-height="1001"
     inkscape:window-x="-9"
     inkscape:window-y="-9"
     inkscape:window-maximized="1"
     inkscape:pagecheckerboard="true"
     units="px"
     fit-margin-top="0"
     fit-margin-left="0"
     fit-margin-right="0"
     fit-margin-bottom="0">
    <inkscape:grid
       type="xygrid"
       id="grid60" />
  </sodipodi:namedview>
  <metadata
     id="metadata5">
    <rdf:RDF>
      <cc:Work
         rdf:about="">
        <dc:format>image/svg+xml</dc:format>
        <dc:type
           rdf:resource="http://purl.org/dc/dcmitype/StillImage" />
        <dc:title />
      </cc:Work>
    </rdf:RDF>
  </metadata>
  <g
     inkscape:label="Layer 1"
     inkscape:groupmode="layer"
     id="layer1"
     transform="translate(-2.1793068,-92.999106)">
    <text
       xml:space="preserve"
       style="font-style:normal;font-variant:normal;font-weight:normal;font-stretch:normal;font-size:3.341501px;line-height:1.25;font-family:'Orbitron Black';-inkscape-font-specification:'Orbitron Black, ';font-variant-ligatures:normal;font-variant-caps:normal;font-variant-numeric:normal;font-feature-settings:normal;text-align:start;letter-spacing:0px;word-spacing:0px;writing-mode:lr-tb;text-anchor:start;fill:#000000;fill-opacity:1;stroke:none;stroke-width:0.01095656"
       x="2.6573324"
       y="77.868797"
       id="text34"
       transform="scale(0.80532375,1.2417366)"><tspan
         sodipodi:role="line"
         id="tspan32"
         x="2.6573324"
         y="77.868797"
         style="font-style:italic;font-variant:normal;font-weight:normal;font-stretch:normal;font-size:3.341501px;font-family:'Brush Script MT';-inkscape-font-specification:'Brush Script MT, Italic';font-variant-ligatures:normal;font-variant-caps:normal;font-variant-numeric:normal;font-feature-settings:normal;text-align:start;writing-mode:lr-tb;text-anchor:start;stroke-width:0.01095656">11</tspan></text>
    <g
       style="font-style:normal;font-variant:normal;font-weight:900;font-stretch:normal;font-size:10.58333302px;line-height:1.25;font-family:'Orbitron Black';-inkscape-font-specification:'Orbitron Black, Heavy';font-variant-ligatures:normal;font-variant-caps:normal;font-variant-numeric:normal;text-align:start;letter-spacing:0px;word-spacing:0px;writing-mode:lr-tb;text-anchor:start;fill:#000000;fill-opacity:1;stroke:none;stroke-width:0.26458332"
       transform="matrix(0.91440926,0,0,0.91440926,-48.815546,-68.039059)"
       id="g48" />
    <g
       id="g100"
       transform="matrix(1.2464431,0,0,1,-2.602023,0.30628651)">
      <path
         inkscape:connector-curvature="0"
         id="path53"
         style="font-style:normal;font-variant:normal;font-weight:900;font-stretch:normal;font-size:10.58333302px;line-height:1.25;font-family:'Orbitron Black';-inkscape-font-specification:'Orbitron Black, Heavy';font-variant-ligatures:normal;font-variant-caps:normal;font-variant-numeric:normal;text-align:start;letter-spacing:0px;word-spacing:0px;writing-mode:lr-tb;text-anchor:start;fill:#0044a9;fill-opacity:1;stroke:none;stroke-width:0.06450224"
         d="m 59.228727,176.92435 h 0.684036 q 0.09891,0 0.169764,0.1818 0.07088,0.17777 0.07088,0.42002 v 1.6801 q 0,0.24233 -0.07253,0.43618 -0.07088,0.18981 -0.168146,0.18981 h -0.684038 q -0.09725,0 -0.169783,-0.18981 -0.07087,-0.19385 -0.07087,-0.43618 v -1.6801 q 0,-0.24231 0.07087,-0.42002 0.07087,-0.1818 0.169783,-0.1818 z m 0.146697,2.24955 h 0.525798 v -1.08237 z m 0.390642,-1.61546 h -0.525794 v 1.08237 z"
         transform="matrix(0.91440926,0,0,0.91440926,-48.815546,-68.039058)" />
      <path
         inkscape:connector-curvature="0"
         id="path4496"
         d="m 59.239797,178.1003 v -0.53382 h 0.258328 c 0.142065,0 0.258329,0.002 0.258329,0.004 0,0.002 -0.116245,0.24247 -0.258329,0.5338 l -0.258328,0.52971 z"
         style="font-style:normal;font-variant:normal;font-weight:900;font-stretch:normal;font-size:10.58333302px;line-height:1.25;font-family:'Orbitron Black';-inkscape-font-specification:'Orbitron Black, Heavy';font-variant-ligatures:normal;font-variant-caps:normal;font-variant-numeric:normal;text-align:start;letter-spacing:0px;word-spacing:0px;writing-mode:lr-tb;text-anchor:start;opacity:1;fill:#ffffff;fill-opacity:1;fill-rule:nonzero;stroke:#4d4d4d;stroke-width:0.00847482;stroke-linecap:butt;stroke-linejoin:miter;stroke-miterlimit:4;stroke-dasharray:none;stroke-dashoffset:0;stroke-opacity:1;paint-order:fill markers stroke"
         transform="matrix(0.91440926,0,0,0.91440926,-48.815546,-68.039058)" />
      <path
         inkscape:connector-curvature="0"
         id="path4498"
         d="m 59.380704,179.16809 c 0,-0.002 0.116245,-0.24245 0.258327,-0.5338 l 0.258328,-0.52971 v 0.53381 0.53382 h -0.258328 c -0.142065,0 -0.258327,-0.002 -0.258327,-0.004 z"
         style="font-style:normal;font-variant:normal;font-weight:900;font-stretch:normal;font-size:10.58333302px;line-height:1.25;font-family:'Orbitron Black';-inkscape-font-specification:'Orbitron Black, Heavy';font-variant-ligatures:normal;font-variant-caps:normal;font-variant-numeric:normal;text-align:start;letter-spacing:0px;word-spacing:0px;writing-mode:lr-tb;text-anchor:start;opacity:1;fill:#ffffff;fill-opacity:1;fill-rule:nonzero;stroke:#4d4d4d;stroke-width:0.00847482;stroke-linecap:butt;stroke-linejoin:miter;stroke-miterlimit:4;stroke-dasharray:none;stroke-dashoffset:0;stroke-opacity:1;paint-order:fill markers stroke"
         transform="matrix(0.91440926,0,0,0.91440926,-48.815546,-68.039058)" />
      <path
         inkscape:connector-curvature="0"
         id="path29"
         d="m 59.250516,178.07997 -0.0011,-0.49222 h 0.238925 0.238925 l -0.08048,0.17198 c -0.04426,0.0946 -0.151294,0.31608 -0.237849,0.49222 l -0.157372,0.32023 z"
         style="font-style:normal;font-variant:normal;font-weight:900;font-stretch:normal;font-size:10.58333302px;line-height:1.25;font-family:'Orbitron Black';-inkscape-font-specification:'Orbitron Black, Heavy';font-variant-ligatures:normal;font-variant-caps:normal;font-variant-numeric:normal;text-align:start;letter-spacing:0px;word-spacing:0px;writing-mode:lr-tb;text-anchor:start;fill:#000000;fill-opacity:1;stroke:none;stroke-width:0.00631688"
         transform="matrix(0.91440926,0,0,0.91440926,-48.815546,-68.039058)" />
      <path
         inkscape:connector-curvature="0"
         id="path31"
         d="m 59.417645,179.14059 c 0,-0.0134 0.433462,-0.91691 0.448127,-0.93411 0.0046,-0.005 0.0084,0.20539 0.0084,0.4685 v 0.47838 h -0.228279 c -0.125552,0 -0.228277,-0.006 -0.228277,-0.0128 z"
         style="font-style:normal;font-variant:normal;font-weight:900;font-stretch:normal;font-size:10.58333302px;line-height:1.25;font-family:'Orbitron Black';-inkscape-font-specification:'Orbitron Black, Heavy';font-variant-ligatures:normal;font-variant-caps:normal;font-variant-numeric:normal;text-align:start;letter-spacing:0px;word-spacing:0px;writing-mode:lr-tb;text-anchor:start;fill:#000000;fill-opacity:1;stroke:none;stroke-width:0.00631688"
         transform="matrix(0.91440926,0,0,0.91440926,-48.815546,-68.039058)" />
      <g
         transform="matrix(0.91440926,0,0,0.91440926,-48.647028,-68.379317)"
         id="g58"
         style="font-style:normal;font-variant:normal;font-weight:900;font-stretch:normal;font-size:10.58333302px;line-height:1.25;font-family:'Orbitron Black';-inkscape-font-specification:'Orbitron Black, Heavy';font-variant-ligatures:normal;font-variant-caps:normal;font-variant-numeric:normal;text-align:start;letter-spacing:0px;word-spacing:0px;writing-mode:lr-tb;text-anchor:start;fill:#000000;fill-opacity:1;stroke:none;stroke-width:0.26458332">
        <path
           inkscape:connector-curvature="0"
           id="path4493"
           style="font-style:normal;font-variant:normal;font-weight:bold;font-stretch:normal;font-size:1.76253426px;line-height:1.25;font-family:Kalam;-inkscape-font-specification:'Kalam, Bold';font-variant-ligatures:normal;font-variant-caps:normal;font-variant-numeric:normal;font-feature-settings:normal;text-align:start;letter-spacing:0px;word-spacing:0px;writing-mode:lr-tb;text-anchor:start;fill:#808080;fill-opacity:1;stroke:none;stroke-width:0.01073262"
           d="m 59.19898,179.87747 q 0.01511,0 0.02153,0.006 0.0068,0.005 0.0068,0.0209 0,0.0209 -0.03285,0.0426 7.48e-4,0.0589 7.48e-4,0.11309 0,0.0535 -0.0042,0.0806 -0.0042,0.0263 -0.01322,0.0263 -0.0091,0 -0.01435,-0.0186 -0.0049,-0.0194 -0.0083,-0.0627 -0.003,-0.0434 -0.0064,-0.11465 -0.03852,0.0178 -0.05551,0.0286 -0.02945,0.16732 -0.03927,0.16732 -0.0079,0 -0.02115,-0.0217 -0.01284,-0.0217 -0.01284,-0.0449 0,-0.0132 0.01473,-0.0821 -0.0064,-0.009 -0.01133,-0.024 -0.0045,-0.0163 -0.0045,-0.031 0,-0.0256 0.03739,-0.0488 0.003,-0.0155 0.006,-0.0349 0.0034,-0.0201 0.01624,-0.093 0.01322,-0.0728 0.02077,-0.12161 0.0034,-0.0232 0.02341,-0.0434 0.02039,-0.0201 0.03172,-0.0201 0.01322,0 0.02341,0.0751 0.01057,0.0751 0.01473,0.20063 z m -0.08723,0.0132 q 0.01133,-0.003 0.03285,-0.008 -0.0011,-0.0224 -0.0038,-0.0767 -0.0023,-0.0542 -0.0034,-0.0782 -0.0064,0.0434 -0.02568,0.16267 z" />
        <path
           inkscape:connector-curvature="0"
           id="path4495"
           style="font-style:normal;font-variant:normal;font-weight:bold;font-stretch:normal;font-size:1.76253426px;line-height:1.25;font-family:Kalam;-inkscape-font-specification:'Kalam, Bold';font-variant-ligatures:normal;font-variant-caps:normal;font-variant-numeric:normal;font-feature-settings:normal;text-align:start;letter-spacing:0px;word-spacing:0px;writing-mode:lr-tb;text-anchor:start;fill:#808080;fill-opacity:1;stroke:none;stroke-width:0.01073262"
           d="m 59.312596,179.60093 q 0.0072,0 0.02795,0.0318 0.02115,0.031 0.02115,0.0465 0,0.0271 0.0087,0.0891 0.0087,0.062 0.02001,0.11231 0.01133,-0.0271 0.03814,-0.0999 0.02719,-0.0736 0.04569,-0.11619 0.0185,-0.0426 0.02757,-0.0426 0.0091,0 0.01888,0.0209 0.0098,0.0209 0.0098,0.0418 0,0.0209 -0.003,0.0542 -0.003,0.0325 -0.0068,0.0612 -0.0034,0.0279 -0.0102,0.0767 -0.0064,0.0488 -0.0102,0.0775 -0.0034,0.0279 -0.0072,0.0604 -0.0038,0.0318 -0.006,0.0503 -0.0019,0.0178 -0.0045,0.038 -0.0023,0.0194 -0.0042,0.0302 -0.0019,0.0101 -0.0042,0.0186 -0.0042,0.0163 -0.01171,0.0163 -0.0076,0 -0.01511,-0.0302 -0.0072,-0.031 -0.0072,-0.0643 0,-0.0821 0.02304,-0.21767 -0.0064,0.0171 -0.0185,0.0503 -0.01208,0.0325 -0.01813,0.048 -0.0057,0.0147 -0.01435,0.0349 -0.01548,0.0349 -0.03021,0.0349 -0.01964,0 -0.02794,-0.0318 -0.0042,-0.0163 -0.01133,-0.0728 -0.0068,-0.0573 -0.0098,-0.079 -0.0049,0.0798 -0.01322,0.14486 -0.0083,0.0651 -0.01095,0.0852 -0.0026,0.0201 -0.0072,0.0488 -0.0076,0.0488 -0.0136,0.0488 -0.0068,0 -0.01888,-0.0364 -0.01171,-0.0372 -0.01171,-0.0581 0,-0.0209 0.0219,-0.20914 0.02228,-0.18823 0.02228,-0.23781 0,-0.0256 0.01095,-0.0256 z" />
        <path
           inkscape:connector-curvature="0"
           id="path4497"
           style="font-style:normal;font-variant:normal;font-weight:bold;font-stretch:normal;font-size:1.76253426px;line-height:1.25;font-family:Kalam;-inkscape-font-specification:'Kalam, Bold';font-variant-ligatures:normal;font-variant-caps:normal;font-variant-numeric:normal;font-feature-settings:normal;text-align:start;letter-spacing:0px;word-spacing:0px;writing-mode:lr-tb;text-anchor:start;fill:#808080;fill-opacity:1;stroke:none;stroke-width:0.01073262"
           d="m 59.585575,179.64896 q 0.0042,-0.0256 0.02417,-0.0325 0.02001,-0.007 0.06042,-0.007 0.04078,0 0.06231,0.0139 0.02152,0.0132 0.02152,0.038 0,0.0116 -0.0045,0.0171 -0.0042,0.005 -0.0076,0.008 -0.003,0.002 -0.0087,0.005 -0.0053,0.002 -0.0098,0.005 -0.0045,0.002 -0.01208,0.003 -0.0072,0.002 -0.01246,0.003 -0.0053,9.5e-4 -0.01397,0.003 -0.0087,0.002 -0.01586,0.003 -0.0072,0.002 -0.03776,0.0116 v 9.6e-4 q 0,0.0279 -0.01171,0.14795 0.0049,9.6e-4 0.01775,9.6e-4 0.01322,0 0.03436,-0.004 0.02115,-0.005 0.02757,-0.005 0.0068,0 0.01133,0.007 0.0045,0.007 0.0045,0.0155 0,0.0209 -0.01208,0.0372 -0.01208,0.0162 -0.03021,0.0256 -0.03625,0.0186 -0.06382,0.0201 -0.01133,0.0984 -0.01397,0.12085 -0.0023,0.0217 -0.0049,0.0418 -0.0049,0.0395 -0.0091,0.0395 -0.0079,0 -0.02152,-0.0364 -0.0136,-0.0364 -0.0136,-0.0542 0,-0.031 0.0185,-0.19675 0.01888,-0.16577 0.02001,-0.20838 v -0.006 q 0,-0.0101 0.0011,-0.0171 z" />
      </g>
    </g>
    <text
       xml:space="preserve"
       style="font-style:normal;font-variant:normal;font-weight:normal;font-stretch:normal;font-size:3.4347055px;line-height:1.25;font-family:'Orbitron Black';-inkscape-font-specification:'Orbitron Black, ';font-variant-ligatures:normal;font-variant-caps:normal;font-variant-numeric:normal;font-feature-settings:normal;text-align:start;letter-spacing:0px;word-spacing:0px;writing-mode:lr-tb;text-anchor:start;fill:#000000;fill-opacity:1;stroke:none;stroke-width:0.01126216"
       x="6.5684886"
       y="75.898209"
       id="text34-9"
       transform="scale(0.78542655,1.2731935)"><tspan
         sodipodi:role="line"
         id="tspan32-0"
         x="6.5684886"
         y="75.898209"
         style="font-style:italic;font-variant:normal;font-weight:normal;font-stretch:normal;font-size:3.4347055px;font-family:'Brush Script MT';-inkscape-font-specification:'Brush Script MT, Italic';font-variant-ligatures:normal;font-variant-caps:normal;font-variant-numeric:normal;font-feature-settings:normal;text-align:start;writing-mode:lr-tb;text-anchor:start;stroke-width:0.01126216">6</tspan></text>
  </g>
</svg>
