<?xml version="1.0" encoding="UTF-8" standalone="no"?>
<!-- Created with Inkscape (http://www.inkscape.org/) -->

<svg
   xmlns:dc="http://purl.org/dc/elements/1.1/"
   xmlns:cc="http://creativecommons.org/ns#"
   xmlns:rdf="http://www.w3.org/1999/02/22-rdf-syntax-ns#"
   xmlns:svg="http://www.w3.org/2000/svg"
   xmlns="http://www.w3.org/2000/svg"
   xmlns:sodipodi="http://sodipodi.sourceforge.net/DTD/sodipodi-0.dtd"
   xmlns:inkscape="http://www.inkscape.org/namespaces/inkscape"
   width="16"
   height="16"
   viewBox="0 0 4.2333334 4.2333333"
   version="1.1"
   id="svg8"
   inkscape:version="0.92.4 (5da689c313, 2019-01-14)"
   sodipodi:docname="icon.svg"
   inkscape:export-filename="C:\Users\AMF\Documents\logo.png"
   inkscape:export-xdpi="16.620001"
   inkscape:export-ydpi="16.620001">
  <defs
     id="defs2" />
  <sodipodi:namedview
     id="base"
     pagecolor="#000000"
     bordercolor="#666666"
     borderopacity="1.0"
     inkscape:pageopacity="0"
     inkscape:pageshadow="2"
     inkscape:zoom="22.4"
     inkscape:cx="17.509358"
     inkscape:cy="9.6171904"
     inkscape:document-units="mm"
     inkscape:current-layer="text12"
     showgrid="false"
     inkscape:snap-page="false"
     inkscape:window-width="1920"
     inkscape:window-height="1001"
     inkscape:window-x="-9"
     inkscape:window-y="-9"
     inkscape:window-maximized="1"
     inkscape:pagecheckerboard="true"
     units="px"
     fit-margin-top="0"
     fit-margin-left="0"
     fit-margin-right="0"
     fit-margin-bottom="0" />
  <metadata
     id="metadata5">
    <rdf:RDF>
      <cc:Work
         rdf:about="">
        <dc:format>image/svg+xml</dc:format>
        <dc:type
           rdf:resource="http://purl.org/dc/dcmitype/StillImage" />
        <dc:title></dc:title>
      </cc:Work>
    </rdf:RDF>
  </metadata>
  <g
     inkscape:label="Layer 1"
     inkscape:groupmode="layer"
     id="layer1"
     transform="translate(-2.1793068,-92.999106)">
    <g
       aria-label="ELVN0Six"
       style="font-style:normal;font-variant:normal;font-weight:900;font-stretch:normal;font-size:10.58333302px;line-height:1.25;font-family:'Orbitron Black';-inkscape-font-specification:'Orbitron Black, Heavy';font-variant-ligatures:normal;font-variant-caps:normal;font-variant-numeric:normal;text-align:start;letter-spacing:0px;word-spacing:0px;writing-mode:lr-tb;text-anchor:start;fill:#000000;fill-opacity:1;stroke:none;stroke-width:0.26458332"
       id="text12"
       transform="matrix(0.91440926,0,0,0.91440926,-49.943111,-67.641037)">
      <path
         d="m 57.556398,177.32011 v 0.25734 h -0.403301 v 0.20785 h 0.324706 v 0.25733 h -0.324706 v 0.20785 h 0.403301 v 0.25733 h -0.527945 v -1.1877 z"
         style="fill:#ffffff;stroke-width:0.02860949"
         id="path45"
         inkscape:connector-curvature="0" />
      <path
         d="m 57.635492,178.50781 v -1.18935 h 0.123054 v 0.93202 H 58.2071 v 0.25733 z"
         style="fill:#ffffff;stroke-width:0.02860949"
         id="path47"
         inkscape:connector-curvature="0" />
      <path
         d="m 58.45966,178.18284 0.239759,-0.86273 h 0.14211 l -0.331059,1.1877 h -0.102411 l -0.331057,-1.1877 h 0.142902 z"
         style="fill:#ffffff;stroke-width:0.02860949"
         id="path49"
         inkscape:connector-curvature="0" />
      <path
         d="m 59.337643,178.11191 v -0.7918 h 0.124641 v 1.1877 h -0.127023 l -0.321531,-0.7951 v 0.7951 h -0.123055 v -1.1877 H 59.0177 Z"
         style="fill:#ffffff;fill-opacity:1;stroke-width:0.02860949"
         id="path51"
         inkscape:connector-curvature="0" />
      <path
         d="m 59.656325,176.92435 h 0.367717 q 0.05317,0 0.09126,0.099 0.0381,0.0968 0.0381,0.22872 v 0.91489 q 0,0.13196 -0.03899,0.23752 -0.0381,0.10336 -0.09039,0.10336 h -0.367718 q -0.05228,0 -0.09127,-0.10336 -0.0381,-0.10556 -0.0381,-0.23752 v -0.91489 q 0,-0.13195 0.0381,-0.22872 0.0381,-0.099 0.09127,-0.099 z m 0.07886,1.22498 h 0.282653 v -0.5894 z m 0.209997,-0.87969 h -0.282651 v 0.5894 z"
         style="fill:#0044a9;fill-opacity:1;stroke-width:0.03489868"
         id="path53"
         inkscape:connector-curvature="0" />
      <path
         d="m 60.984996,177.33108 v 0.18419 h -0.205884 v -0.1622 H 60.42662 v 0.34639 h 0.401712 c 0.04305,0 0.07975,0.0403 0.110088,0.12096 0.03105,0.0788 0.04659,0.17411 0.04659,0.28591 v 0.54503 c 0,0.11179 -0.01552,0.20801 -0.04659,0.28865 -0.03034,0.0788 -0.06704,0.11824 -0.110088,0.11821 l -3.643611,-0.003 c -0.04304,-3e-5 -0.0801,-0.0394 -0.111145,-0.11821 -0.03034,-0.0788 -0.04552,-0.17502 -0.04552,-0.28866 v -0.022 h 0.164073 v 0 l 3.586981,0.003 c 0,-0.16701 0,-0.33402 0,-0.50104 h -0.399595 c -0.04304,0 -0.08009,-0.0394 -0.111146,-0.1182 -0.03034,-0.0788 -0.04552,-0.17503 -0.04552,-0.28866 v -0.39038 c 0,-0.11363 0.01516,-0.20985 0.04552,-0.28865 0.03105,-0.0788 0.0681,-0.11822 0.111146,-0.11822 h 0.448816 c 0.04304,0 0.07975,0.0403 0.110087,0.12097 0.03105,0.0788 0.04659,0.1741 0.04659,0.2859 z"
         style="font-size:14.11111069px;fill:#ffffff;fill-opacity:1;stroke-width:0.03198521"
         id="path55"
         inkscape:connector-curvature="0"
         sodipodi:nodetypes="scccccscsscsscscccccscsscsscs" />
      <path
         d="m 61.072288,178.50781 v -0.76541 h 0.09717 v 0.76541 z m 0,-1.01615 h 0.09717 v 0.20324 h -0.09717 z"
         style="font-size:8.46666622px;fill:#ffffff;fill-opacity:1;stroke-width:0.02860949"
         id="path57"
         inkscape:connector-curvature="0" />
      <path
         d="m 61.505469,177.7424 h 0.100347 v 0.066 l -0.127024,0.31012 0.06986,0.17684 0.05716,0.14648 v 0.066 h -0.09972 l -0.09019,-0.22962 -0.09019,0.22962 h -0.09972 v -0.066 l 0.127025,-0.32332 -0.127025,-0.31012 v -0.066 h 0.09972 l 0.09019,0.22171 z"
         style="font-size:8.46666622px;fill:#ffffff;fill-opacity:1;stroke-width:0.02860949"
         id="path59"
         inkscape:connector-curvature="0" />
      <g
         aria-label="AMF"
         style="font-style:normal;font-variant:normal;font-weight:bold;font-stretch:normal;font-size:1.76253426px;line-height:1.25;font-family:Kalam;-inkscape-font-specification:'Kalam, Bold';font-variant-ligatures:normal;font-variant-caps:normal;font-variant-numeric:normal;font-feature-settings:normal;text-align:start;letter-spacing:0px;word-spacing:0px;writing-mode:lr-tb;text-anchor:start;fill:#808080;fill-opacity:1;stroke:none;stroke-width:0.03497528"
         id="text64"
         transform="matrix(0.11517884,0,0,0.23932298,49.974726,135.65954)">
        <path
           d="m 90.931058,178.45752 q 0.0705,0 0.100464,0.0141 0.03173,0.0123 0.03173,0.0476 0,0.0476 -0.153341,0.0969 0.0035,0.13396 0.0035,0.25733 0,0.12162 -0.01939,0.18331 -0.01939,0.0599 -0.06169,0.0599 -0.0423,0 -0.06698,-0.0423 -0.02291,-0.0441 -0.03878,-0.14276 -0.0141,-0.0987 -0.02996,-0.26086 -0.179779,0.0405 -0.259093,0.0652 -0.137477,0.3807 -0.183303,0.3807 -0.03701,0 -0.0987,-0.0494 -0.05993,-0.0494 -0.05993,-0.10223 0,-0.03 0.06874,-0.18682 -0.02996,-0.0194 -0.05288,-0.0546 -0.02115,-0.037 -0.02115,-0.0705 0,-0.0582 0.174491,-0.11104 0.0141,-0.0352 0.0282,-0.0793 0.01586,-0.0458 0.07579,-0.2115 0.06169,-0.16568 0.09694,-0.27672 0.01586,-0.0529 0.109277,-0.0987 0.09518,-0.0458 0.148053,-0.0458 0.06169,0 0.109277,0.17097 0.04935,0.17096 0.06874,0.45649 z m -0.407146,0.03 q 0.05288,-0.007 0.153341,-0.0176 -0.0053,-0.0511 -0.01762,-0.17449 -0.01058,-0.12338 -0.01586,-0.17801 -0.02996,0.0987 -0.119853,0.37013 z"
           style="font-style:normal;font-variant:normal;font-weight:bold;font-stretch:normal;font-size:1.76253426px;font-family:Kalam;-inkscape-font-specification:'Kalam, Bold';font-variant-ligatures:normal;font-variant-caps:normal;font-variant-numeric:normal;font-feature-settings:normal;text-align:start;writing-mode:lr-tb;text-anchor:start;fill:#808080;fill-opacity:1;stroke-width:0.03497528"
           id="path4493"
           inkscape:connector-curvature="0" />
        <path
           d="m 91.461333,177.8283 q 0.03349,0 0.130427,0.0723 0.0987,0.0705 0.0987,0.10576 0,0.0617 0.04054,0.20269 0.04054,0.141 0.09341,0.25556 0.05288,-0.0617 0.178016,-0.22736 0.126902,-0.16744 0.213267,-0.26438 0.08636,-0.0969 0.128665,-0.0969 0.0423,0 0.08813,0.0476 0.04583,0.0476 0.04583,0.0952 0,0.0476 -0.0141,0.12338 -0.0141,0.074 -0.03173,0.13924 -0.01586,0.0634 -0.04759,0.17449 -0.02996,0.11104 -0.04759,0.17626 -0.01586,0.0634 -0.03349,0.13747 -0.01763,0.0723 -0.0282,0.11457 -0.0088,0.0405 -0.02115,0.0864 -0.01058,0.0441 -0.01939,0.0687 -0.0088,0.0229 -0.01939,0.0423 -0.01939,0.037 -0.05464,0.037 -0.03525,0 -0.0705,-0.0687 -0.03349,-0.0705 -0.03349,-0.14629 0,-0.18683 0.107515,-0.49528 -0.02996,0.0388 -0.08636,0.11457 -0.0564,0.074 -0.0846,0.10928 -0.02644,0.0335 -0.06698,0.0793 -0.07226,0.0793 -0.141003,0.0793 -0.09165,0 -0.130427,-0.0723 -0.01939,-0.037 -0.05288,-0.16568 -0.03173,-0.13043 -0.04583,-0.17978 -0.02291,0.18154 -0.06169,0.3296 -0.03878,0.14805 -0.05111,0.19388 -0.01234,0.0458 -0.03349,0.11104 -0.03525,0.11103 -0.06345,0.11103 -0.03172,0 -0.08813,-0.0828 -0.05464,-0.0846 -0.05464,-0.13219 0,-0.0476 0.102227,-0.47589 0.103989,-0.42829 0.103989,-0.5411 0,-0.0582 0.05111,-0.0582 z"
           style="font-style:normal;font-variant:normal;font-weight:bold;font-stretch:normal;font-size:1.76253426px;font-family:Kalam;-inkscape-font-specification:'Kalam, Bold';font-variant-ligatures:normal;font-variant-caps:normal;font-variant-numeric:normal;font-feature-settings:normal;text-align:start;writing-mode:lr-tb;text-anchor:start;fill:#808080;fill-opacity:1;stroke-width:0.03497528"
           id="path4495"
           inkscape:connector-curvature="0" />
        <path
           d="m 92.735397,177.93758 q 0.01939,-0.0582 0.112803,-0.074 0.09341,-0.0159 0.282005,-0.0159 0.190354,0 0.290818,0.0317 0.100465,0.03 0.100465,0.0864 0,0.0264 -0.02115,0.0388 -0.01939,0.0106 -0.03525,0.0176 -0.0141,0.005 -0.04054,0.0106 -0.02468,0.005 -0.04583,0.0106 -0.02115,0.004 -0.0564,0.007 -0.03349,0.004 -0.05816,0.007 -0.02468,0.002 -0.06521,0.007 -0.04054,0.004 -0.07403,0.007 -0.03349,0.004 -0.176253,0.0264 v 0.002 q 0,0.0635 -0.05464,0.33664 0.02291,0.002 0.08284,0.002 0.06169,0 0.16039,-0.009 0.0987,-0.0106 0.128665,-0.0106 0.03173,0 0.05288,0.0159 0.02115,0.0159 0.02115,0.0353 0,0.0476 -0.0564,0.0846 -0.0564,0.037 -0.141003,0.0582 -0.169203,0.0423 -0.297868,0.0458 -0.05288,0.22385 -0.06521,0.27496 -0.01058,0.0494 -0.02291,0.0952 -0.02291,0.0899 -0.0423,0.0899 -0.03701,0 -0.100464,-0.0828 -0.06345,-0.0828 -0.06345,-0.12338 0,-0.0705 0.08636,-0.44769 0.08813,-0.37718 0.09341,-0.47412 v -0.0141 q 0,-0.0229 0.0053,-0.0388 z"
           style="font-style:normal;font-variant:normal;font-weight:bold;font-stretch:normal;font-size:1.76253426px;font-family:Kalam;-inkscape-font-specification:'Kalam, Bold';font-variant-ligatures:normal;font-variant-caps:normal;font-variant-numeric:normal;font-feature-settings:normal;text-align:start;writing-mode:lr-tb;text-anchor:start;fill:#808080;fill-opacity:1;stroke-width:0.03497528"
           id="path4497"
           inkscape:connector-curvature="0" />
      </g>
      <path
         style="opacity:1;fill:#ffffff;fill-opacity:1;fill-rule:nonzero;stroke:#4d4d4d;stroke-width:0.00458527;stroke-linecap:butt;stroke-linejoin:miter;stroke-miterlimit:4;stroke-dasharray:none;stroke-dashoffset:0;stroke-opacity:1;paint-order:fill markers stroke"
         d="m 59.662276,177.56471 v -0.29069 h 0.138869 c 0.07637,0 0.13887,0.001 0.13887,0.002 0,0.001 -0.06249,0.13204 -0.13887,0.29068 l -0.138869,0.28845 z"
         id="path4496"
         inkscape:connector-curvature="0" />
      <path
         style="opacity:1;fill:#ffffff;fill-opacity:1;fill-rule:nonzero;stroke:#4d4d4d;stroke-width:0.00458527;stroke-linecap:butt;stroke-linejoin:miter;stroke-miterlimit:4;stroke-dasharray:none;stroke-dashoffset:0;stroke-opacity:1;paint-order:fill markers stroke"
         d="m 59.738023,178.14617 c 0,-0.001 0.06249,-0.13203 0.138869,-0.29068 l 0.138869,-0.28845 v 0.29068 0.29069 h -0.138869 c -0.07637,0 -0.138869,-0.001 -0.138869,-0.002 z"
         id="path4498"
         inkscape:connector-curvature="0" />
      <path
         style="opacity:1;fill:#ffffff;fill-opacity:1;fill-rule:nonzero;stroke:#4d4d4d;stroke-width:0.00458527;stroke-linecap:butt;stroke-linejoin:miter;stroke-miterlimit:4;stroke-dasharray:none;stroke-dashoffset:0;stroke-opacity:1;paint-order:fill markers stroke"
         d="m 58.473473,179.04916 -1.325568,-0.005 -0.02104,-0.0233 c -0.05525,-0.0613 -0.08922,-0.18201 -0.09612,-0.34173 l -0.0022,-0.0503 h 1.876532 1.876532 v -0.25327 -0.25328 l -0.219876,-0.002 -0.219876,-0.002 -0.02219,-0.0256 c -0.04165,-0.0479 -0.07364,-0.13859 -0.08726,-0.2472 -0.0088,-0.0708 -0.0089,-0.57082 -1.63e-4,-0.63983 0.01422,-0.11101 0.05038,-0.20756 0.09468,-0.25276 l 0.02334,-0.0238 h 0.252489 0.252489 l 0.02423,0.0236 c 0.04583,0.0446 0.08587,0.15736 0.09794,0.27572 0.0034,0.0334 0.0061,0.10781 0.0061,0.17068 l 6.6e-5,0.11149 h -0.101005 -0.101004 v -0.0787 -0.0787 h -0.178775 -0.178846 v 0.17457 0.17458 l 0.217773,0.002 0.217771,0.002 0.02401,0.0245 c 0.04378,0.0447 0.0819,0.1565 0.09408,0.27611 0.0084,0.0827 0.0084,0.66264 0,0.74536 -0.01257,0.12328 -0.04751,0.22427 -0.09402,0.27186 l -0.02809,0.0287 -0.528215,1.3e-4 c -0.290517,7e-5 -1.124718,-0.002 -1.853782,-0.004 z"
         id="path4500"
         inkscape:connector-curvature="0" />
    </g>
  </g>
</svg>
