<?xml version="1.0" encoding="UTF-8" standalone="no"?>
<!-- Created with Inkscape (http://www.inkscape.org/) -->

<svg
   xmlns:dc="http://purl.org/dc/elements/1.1/"
   xmlns:cc="http://creativecommons.org/ns#"
   xmlns:rdf="http://www.w3.org/1999/02/22-rdf-syntax-ns#"
   xmlns:svg="http://www.w3.org/2000/svg"
   xmlns="http://www.w3.org/2000/svg"
   xmlns:sodipodi="http://sodipodi.sourceforge.net/DTD/sodipodi-0.dtd"
   xmlns:inkscape="http://www.inkscape.org/namespaces/inkscape"
   width="36.343002mm"
   height="8.1536684mm"
   viewBox="0 0 36.343002 8.1536684"
   version="1.1"
   id="svg8"
   inkscape:version="0.92.4 (5da689c313, 2019-01-14)"
   sodipodi:docname="logo - Black.svg"
   inkscape:export-filename="C:\Users\AMF\Documents\logo.png"
   inkscape:export-xdpi="16.620001"
   inkscape:export-ydpi="16.620001">
  <defs
     id="defs2" />
  <sodipodi:namedview
     id="base"
     pagecolor="#000000"
     bordercolor="#666666"
     borderopacity="1.0"
     inkscape:pageopacity="0"
     inkscape:pageshadow="2"
     inkscape:zoom="7.9195959"
     inkscape:cx="62.399617"
     inkscape:cy="7.178593"
     inkscape:document-units="mm"
     inkscape:current-layer="text12"
     showgrid="false"
     inkscape:snap-page="false"
     inkscape:window-width="1920"
     inkscape:window-height="1001"
     inkscape:window-x="-9"
     inkscape:window-y="-9"
     inkscape:window-maximized="1"
     inkscape:pagecheckerboard="true"
     units="mm"
     fit-margin-top="0"
     fit-margin-left="0"
     fit-margin-right="0"
     fit-margin-bottom="0" />
  <metadata
     id="metadata5">
    <rdf:RDF>
      <cc:Work
         rdf:about="">
        <dc:format>image/svg+xml</dc:format>
        <dc:type
           rdf:resource="http://purl.org/dc/dcmitype/StillImage" />
        <dc:title />
      </cc:Work>
    </rdf:RDF>
  </metadata>
  <g
     inkscape:label="Layer 1"
     inkscape:groupmode="layer"
     id="layer1"
     transform="translate(-2.1793068,-89.078771)">
    <g
       aria-label="ELVN0Six"
       style="font-style:normal;font-variant:normal;font-weight:900;font-stretch:normal;font-size:10.58333302px;line-height:1.25;font-family:'Orbitron Black';-inkscape-font-specification:'Orbitron Black, Heavy';font-variant-ligatures:normal;font-variant-caps:normal;font-variant-numeric:normal;text-align:start;letter-spacing:0px;word-spacing:0px;writing-mode:lr-tb;text-anchor:start;fill:#000000;fill-opacity:1;stroke:none;stroke-width:0.26458332"
       id="text12"
       transform="matrix(0.91440926,0,0,0.91440926,-49.943111,-67.641037)">
      <path
         d="m 61.588322,173.04339 v 1.07527 h -3.50152 v 0.86848 h 2.81914 v 1.07527 h -2.81914 v 0.86848 h 3.50152 v 1.07527 h -4.58369 v -4.96277 z"
         style="fill:#000000;stroke-width:0.17231841"
         id="path45"
         inkscape:connector-curvature="0" />
      <path
         d="m 62.275022,178.00616 v -4.96966 h 1.06838 v 3.89439 h 3.89441 v 1.07527 z"
         style="fill:#ffffff;stroke-width:0.17231841"
         id="path47"
         inkscape:connector-curvature="0" />
      <path
         d="m 69.430582,176.64829 2.08162,-3.6049 h 1.23381 l -2.8743,4.96277 h -0.88916 l -2.87429,-4.96277 h 1.2407 z"
         style="fill:#ffffff;stroke-width:0.17231841"
         id="path49"
         inkscape:connector-curvature="0" />
      <path
         d="m 77.053352,176.3519 v -3.30851 h 1.08216 v 4.96277 h -1.10284 l -2.79158,-3.3223 v 3.3223 h -1.06838 v -4.96277 h 1.10285 z"
         style="fill:#ffffff;fill-opacity:1;stroke-width:0.17231841"
         id="path51"
         inkscape:connector-curvature="0" />
      <path
         d="m 79.820192,171.38975 h 3.19258 q 0.46157,0 0.79236,0.41352 0.33081,0.40434 0.33081,0.9557 v 3.82282 q 0,0.55137 -0.33849,0.99246 -0.3308,0.43191 -0.78468,0.43191 h -3.19258 q -0.45388,0 -0.79237,-0.43191 -0.33079,-0.44109 -0.33079,-0.99246 v -3.82282 q 0,-0.55136 0.33079,-0.9557 0.33079,-0.41352 0.79237,-0.41352 z m 0.68468,5.11853 h 2.45404 v -2.46279 z m 1.82322,-3.67579 h -2.45405 v 2.46277 z"
         style="fill:#0044a9;fill-opacity:1;stroke-width:0.21019886"
         id="path53"
         inkscape:connector-curvature="0" />
      <path
         d="m 91.355922,173.08922 v 0.76962 h -1.78752 v -0.67773 h -3.06038 v 1.44736 h 3.48773 c 0.37374,0 0.69233,0.16848 0.95579,0.50544 0.26959,0.32929 0.40438,0.72751 0.40438,1.19465 v 2.27736 c 0,0.46714 -0.13479,0.86918 -0.40438,1.20613 -0.26346,0.3293 -0.58205,0.49408 -0.95579,0.49395 l -31.63438,-0.0109 c -0.37375,-1.3e-4 -0.69541,-0.16465 -0.96499,-0.49394 -0.26346,-0.32929 -0.39519,-0.73133 -0.39519,-1.20614 v -0.0919 h 1.42451 v 0 l 31.1427,0.0109 c 0,-0.69785 0,-1.3957 0,-2.09355 h -3.46934 c -0.37374,0 -0.6954,-0.16465 -0.96499,-0.49395 -0.26345,-0.32929 -0.39518,-0.73134 -0.39518,-1.20614 v -1.63116 c 0,-0.4748 0.13173,-0.87685 0.39518,-1.20614 0.26959,-0.3293 0.59125,-0.49395 0.96499,-0.49395 h 3.89669 c 0.37374,0 0.69233,0.16848 0.95579,0.50544 0.26959,0.32929 0.40438,0.72751 0.40438,1.19465 z"
         style="font-size:14.11111069px;fill:#ffffff;fill-opacity:1;stroke-width:0.19265074"
         id="path55"
         inkscape:connector-curvature="0"
         sodipodi:nodetypes="scccccscsscsscscccccscsscsscs" />
      <path
         d="m 92.113802,178.00616 v -3.19823 h 0.84367 v 3.19823 z m 0,-4.24593 h 0.84367 v 0.84919 h -0.84367 z"
         style="font-size:8.46666622px;fill:#ffffff;fill-opacity:1;stroke-width:0.17231841"
         id="path57"
         inkscape:connector-curvature="0" />
      <path
         d="m 95.874742,174.80793 h 0.87124 v 0.27571 l -1.10284,1.29583 0.60656,0.73891 0.49628,0.61207 v 0.27571 h -0.86573 l -0.78302,-0.95947 -0.78301,0.95947 h -0.86573 v -0.27571 l 1.10284,-1.35098 -1.10284,-1.29583 v -0.27571 h 0.86573 l 0.78301,0.92638 z"
         style="font-size:8.46666622px;fill:#ffffff;fill-opacity:1;stroke-width:0.17231841"
         id="path59"
         inkscape:connector-curvature="0" />
      <g
         aria-label="AMF"
         style="font-style:normal;font-variant:normal;font-weight:bold;font-stretch:normal;font-size:1.76253426px;line-height:1.25;font-family:Kalam;-inkscape-font-specification:'Kalam, Bold';font-variant-ligatures:normal;font-variant-caps:normal;font-variant-numeric:normal;font-feature-settings:normal;text-align:start;letter-spacing:0px;word-spacing:0px;writing-mode:lr-tb;text-anchor:start;fill:#808080;fill-opacity:1;stroke:none;stroke-width:0.03497528"
         id="text64"
         transform="translate(-4.2368941,-1.0333932)">
        <path
           d="m 90.931058,178.45752 q 0.0705,0 0.100464,0.0141 0.03173,0.0123 0.03173,0.0476 0,0.0476 -0.153341,0.0969 0.0035,0.13396 0.0035,0.25733 0,0.12162 -0.01939,0.18331 -0.01939,0.0599 -0.06169,0.0599 -0.0423,0 -0.06698,-0.0423 -0.02291,-0.0441 -0.03878,-0.14276 -0.0141,-0.0987 -0.02996,-0.26086 -0.179779,0.0405 -0.259093,0.0652 -0.137477,0.3807 -0.183303,0.3807 -0.03701,0 -0.0987,-0.0494 -0.05993,-0.0494 -0.05993,-0.10223 0,-0.03 0.06874,-0.18682 -0.02996,-0.0194 -0.05288,-0.0546 -0.02115,-0.037 -0.02115,-0.0705 0,-0.0582 0.174491,-0.11104 0.0141,-0.0352 0.0282,-0.0793 0.01586,-0.0458 0.07579,-0.2115 0.06169,-0.16568 0.09694,-0.27672 0.01586,-0.0529 0.109277,-0.0987 0.09518,-0.0458 0.148053,-0.0458 0.06169,0 0.109277,0.17097 0.04935,0.17096 0.06874,0.45649 z m -0.407146,0.03 q 0.05288,-0.007 0.153341,-0.0176 -0.0053,-0.0511 -0.01762,-0.17449 -0.01058,-0.12338 -0.01586,-0.17801 -0.02996,0.0987 -0.119853,0.37013 z"
           style="font-style:normal;font-variant:normal;font-weight:bold;font-stretch:normal;font-size:1.76253426px;font-family:Kalam;-inkscape-font-specification:'Kalam, Bold';font-variant-ligatures:normal;font-variant-caps:normal;font-variant-numeric:normal;font-feature-settings:normal;text-align:start;writing-mode:lr-tb;text-anchor:start;fill:#808080;fill-opacity:1;stroke-width:0.03497528"
           id="path4493"
           inkscape:connector-curvature="0" />
        <path
           d="m 91.461333,177.8283 q 0.03349,0 0.130427,0.0723 0.0987,0.0705 0.0987,0.10576 0,0.0617 0.04054,0.20269 0.04054,0.141 0.09341,0.25556 0.05288,-0.0617 0.178016,-0.22736 0.126902,-0.16744 0.213267,-0.26438 0.08636,-0.0969 0.128665,-0.0969 0.0423,0 0.08813,0.0476 0.04583,0.0476 0.04583,0.0952 0,0.0476 -0.0141,0.12338 -0.0141,0.074 -0.03173,0.13924 -0.01586,0.0634 -0.04759,0.17449 -0.02996,0.11104 -0.04759,0.17626 -0.01586,0.0634 -0.03349,0.13747 -0.01763,0.0723 -0.0282,0.11457 -0.0088,0.0405 -0.02115,0.0864 -0.01058,0.0441 -0.01939,0.0687 -0.0088,0.0229 -0.01939,0.0423 -0.01939,0.037 -0.05464,0.037 -0.03525,0 -0.0705,-0.0687 -0.03349,-0.0705 -0.03349,-0.14629 0,-0.18683 0.107515,-0.49528 -0.02996,0.0388 -0.08636,0.11457 -0.0564,0.074 -0.0846,0.10928 -0.02644,0.0335 -0.06698,0.0793 -0.07226,0.0793 -0.141003,0.0793 -0.09165,0 -0.130427,-0.0723 -0.01939,-0.037 -0.05288,-0.16568 -0.03173,-0.13043 -0.04583,-0.17978 -0.02291,0.18154 -0.06169,0.3296 -0.03878,0.14805 -0.05111,0.19388 -0.01234,0.0458 -0.03349,0.11104 -0.03525,0.11103 -0.06345,0.11103 -0.03172,0 -0.08813,-0.0828 -0.05464,-0.0846 -0.05464,-0.13219 0,-0.0476 0.102227,-0.47589 0.103989,-0.42829 0.103989,-0.5411 0,-0.0582 0.05111,-0.0582 z"
           style="font-style:normal;font-variant:normal;font-weight:bold;font-stretch:normal;font-size:1.76253426px;font-family:Kalam;-inkscape-font-specification:'Kalam, Bold';font-variant-ligatures:normal;font-variant-caps:normal;font-variant-numeric:normal;font-feature-settings:normal;text-align:start;writing-mode:lr-tb;text-anchor:start;fill:#808080;fill-opacity:1;stroke-width:0.03497528"
           id="path4495"
           inkscape:connector-curvature="0" />
        <path
           d="m 92.735397,177.93758 q 0.01939,-0.0582 0.112803,-0.074 0.09341,-0.0159 0.282005,-0.0159 0.190354,0 0.290818,0.0317 0.100465,0.03 0.100465,0.0864 0,0.0264 -0.02115,0.0388 -0.01939,0.0106 -0.03525,0.0176 -0.0141,0.005 -0.04054,0.0106 -0.02468,0.005 -0.04583,0.0106 -0.02115,0.004 -0.0564,0.007 -0.03349,0.004 -0.05816,0.007 -0.02468,0.002 -0.06521,0.007 -0.04054,0.004 -0.07403,0.007 -0.03349,0.004 -0.176253,0.0264 v 0.002 q 0,0.0635 -0.05464,0.33664 0.02291,0.002 0.08284,0.002 0.06169,0 0.16039,-0.009 0.0987,-0.0106 0.128665,-0.0106 0.03173,0 0.05288,0.0159 0.02115,0.0159 0.02115,0.0353 0,0.0476 -0.0564,0.0846 -0.0564,0.037 -0.141003,0.0582 -0.169203,0.0423 -0.297868,0.0458 -0.05288,0.22385 -0.06521,0.27496 -0.01058,0.0494 -0.02291,0.0952 -0.02291,0.0899 -0.0423,0.0899 -0.03701,0 -0.100464,-0.0828 -0.06345,-0.0828 -0.06345,-0.12338 0,-0.0705 0.08636,-0.44769 0.08813,-0.37718 0.09341,-0.47412 v -0.0141 q 0,-0.0229 0.0053,-0.0388 z"
           style="font-style:normal;font-variant:normal;font-weight:bold;font-stretch:normal;font-size:1.76253426px;font-family:Kalam;-inkscape-font-specification:'Kalam, Bold';font-variant-ligatures:normal;font-variant-caps:normal;font-variant-numeric:normal;font-feature-settings:normal;text-align:start;writing-mode:lr-tb;text-anchor:start;fill:#808080;fill-opacity:1;stroke-width:0.03497528"
           id="path4497"
           inkscape:connector-curvature="0" />
      </g>
      <path
         style="opacity:1;fill:#ffffff;fill-opacity:1;fill-rule:nonzero;stroke:#4d4d4d;stroke-width:0.09544748;stroke-linecap:butt;stroke-linejoin:miter;stroke-miterlimit:4;stroke-dasharray:none;stroke-dashoffset:0;stroke-opacity:1;paint-order:fill markers stroke"
         d="m 79.041881,9.2493436 v -4.197729 h 4.166879 c 2.291783,0 4.166879,0.014528 4.166879,0.032285 0,0.017757 -1.875096,1.9067347 -4.166879,4.1977291 l -4.166879,4.1654443 z"
         id="path4496"
         inkscape:connector-curvature="0"
         transform="matrix(0.28934892,0,0,0.28934892,57.001192,171.38913)" />
      <path
         style="opacity:1;fill:#ffffff;fill-opacity:1;fill-rule:nonzero;stroke:#4d4d4d;stroke-width:0.09544748;stroke-linecap:butt;stroke-linejoin:miter;stroke-miterlimit:4;stroke-dasharray:none;stroke-dashoffset:0;stroke-opacity:1;paint-order:fill markers stroke"
         d="m 81.314724,17.646237 c 0,-0.01776 1.875095,-1.906735 4.166879,-4.197729 l 4.166879,-4.1654447 v 4.1977287 4.197729 h -4.166879 c -2.291784,0 -4.166879,-0.01453 -4.166879,-0.03228 z"
         id="path4498"
         inkscape:connector-curvature="0"
         transform="matrix(0.28934892,0,0,0.28934892,57.001192,171.38913)" />
      <path
         style="opacity:1;fill:#ffffff;fill-opacity:1;fill-rule:nonzero;stroke:#4d4d4d;stroke-width:0.09544748;stroke-linecap:butt;stroke-linejoin:miter;stroke-miterlimit:4;stroke-dasharray:none;stroke-dashoffset:0;stroke-opacity:1;paint-order:fill markers stroke"
         d="M 43.370869,30.686135 3.5961123,30.621101 2.9647669,30.284271 C 1.3068902,29.399773 0.28773242,27.655826 0.08082312,25.349367 L 0.01569042,24.62332 H 56.322571 112.62945 v -3.657515 -3.657513 l -6.59756,-0.03586 -6.597555,-0.03586 -0.665952,-0.368962 C 97.51887,16.175341 96.558826,14.866316 96.150287,13.297831 95.883948,12.275286 95.880097,5.0546844 96.145363,4.0580568 96.572017,2.4550514 97.657251,1.0607711 98.98635,0.40802748 l 0.700523,-0.34404109 h 7.576147 7.57614 l 0.7268,0.34059852 c 1.375,0.64436359 2.5767,2.27243389 2.93888,3.98161609 0.10217,0.482114 0.1821,1.5567525 0.18334,2.4647478 l 0.002,1.6099306 h -3.03046 -3.03046 V 7.3244578 6.1880362 h -5.36643 -5.36644 v 2.5210563 2.5210565 l 6.53443,0.03589 6.53442,0.03589 0.72006,0.3536 c 1.31361,0.645067 2.45716,2.260103 2.82326,3.987278 0.2532,1.194545 0.2532,9.569136 0,10.763681 -0.37734,1.780207 -1.42541,3.238666 -2.82119,3.925863 l -0.84295,0.415015 -15.849491,0.0019 c -8.717221,0.001 -33.748134,-0.02737 -55.62425,-0.06313 z"
         id="path4500"
         inkscape:connector-curvature="0"
         transform="matrix(0.28934892,0,0,0.28934892,57.001192,171.38913)" />
      <path
         style="fill:#000000;stroke-width:0.03340869"
         d="M 18.230697,14.307137 V 5.7839751 h 1.830902 1.830901 v 6.6922609 6.69226 h 6.692261 6.69226 v 1.830902 1.830901 h -8.523162 -8.523162 z"
         id="path23"
         inkscape:connector-curvature="0"
         transform="matrix(0.28934892,0,0,0.28934892,57.001192,171.38913)" />
      <path
         style="fill:#000000;stroke-width:0.03340869"
         d="m 41.046924,22.104252 c -0.306136,-0.5103 -8.640923,-14.9085784 -9.392561,-16.2255751 -0.02973,-0.052086 0.874893,-0.094702 2.010266,-0.094702 h 2.064314 l 3.553529,6.1527561 c 1.95444,3.384016 3.600164,6.168302 3.657163,6.187301 0.057,0.019 1.702302,-2.735535 3.65623,-6.121189 l 3.552597,-6.1557336 2.03446,-0.034695 c 1.118953,-0.019082 2.03446,1.48e-5 2.03446,0.042438 0,0.042423 -2.201817,3.8792347 -4.892927,8.5262476 l -4.892926,8.449115 -1.474519,4.1e-5 -1.47452,4.3e-5 z"
         id="path25"
         inkscape:connector-curvature="0"
         transform="matrix(0.28934892,0,0,0.28934892,57.001192,171.38913)" />
      <path
         style="fill:#000000;stroke-width:0.03340869"
         d="M 55.985149,14.307137 V 5.7839751 l 1.862468,0.00582 1.862469,0.00582 4.73509,5.6699699 c 2.6043,3.118483 4.777706,5.672811 4.829792,5.676284 0.05209,0.0035 0.0947,-2.550634 0.0947,-5.675794 V 5.7839751 h 1.830901 1.830902 v 8.5231619 8.523162 h -1.873067 -1.873065 l -4.850762,-5.771063 -4.850762,-5.771064 -0.03284,5.771064 -0.03284,5.771063 h -1.766493 -1.766493 z"
         id="path27"
         inkscape:connector-curvature="0"
         transform="matrix(0.28934892,0,0,0.28934892,57.001192,171.38913)" />
      <path
         style="fill:#000000;stroke-width:0.03340869"
         d="M 79.092388,9.19324 V 5.1526298 h 4.071438 4.071437 L 83.196133,9.19324 c -2.221522,2.222336 -4.053669,4.04061 -4.071438,4.04061 -0.01777,0 -0.03231,-1.818274 -0.03231,-4.04061 z"
         id="path29"
         inkscape:connector-curvature="0"
         transform="matrix(0.28934892,0,0,0.28934892,57.001192,171.38913)" />
      <path
         style="fill:#000000;stroke-width:0.03340869"
         d="m 85.532111,13.549523 c 2.186785,-2.187612 3.990516,-3.9774758 4.008291,-3.9774758 0.01778,0 0.03232,1.7898638 0.03232,3.9774758 v 3.977476 H 85.56443 81.556138 Z"
         id="path31"
         inkscape:connector-curvature="0"
         transform="matrix(0.28934892,0,0,0.28934892,57.001192,171.38913)" />
      <path
         style="fill:#000000;stroke-width:0.03340869"
         d="M 30.731335,30.533286 3.5203505,30.469578 2.9082697,30.109806 C 2.0755529,29.620347 1.3591463,28.853831 0.91844174,27.9808 0.51182391,27.175295 0.17896246,25.927457 0.1760866,25.197844 L 0.1742206,24.724335 H 56.42709 112.67996 v -3.788072 -3.788072 h -6.57102 c -6.418949,0 -6.58301,-0.0061 -7.089003,-0.264254 -0.729524,-0.372175 -1.682677,-1.300389 -2.113996,-2.058681 -0.760305,-1.336677 -0.815419,-1.755044 -0.816795,-6.2002268 -0.0011,-3.5652587 0.02569,-4.1223113 0.227799,-4.7350901 0.469665,-1.4240197 1.216481,-2.4139687 2.398293,-3.1790814 l 0.745623,-0.48272163 h 7.750169 7.75017 l 0.59584,0.30193392 c 0.68562,0.34743271 1.72506,1.39668001 2.20267,2.22344751 0.53592,0.9277194 0.73056,1.8245446 0.81529,3.7565047 l 0.0789,1.7993343 h -2.98698 -2.98698 V 7.1729349 6.0365132 h -5.42957 -5.42957 v 2.6418281 2.6418277 l 6.59756,0.04139 c 6.56711,0.0412 6.60002,0.0427 7.13069,0.32627 1.21537,0.649436 2.24242,1.967389 2.71815,3.488034 0.27036,0.864185 0.28128,1.087522 0.28174,5.7604 5.1e-4,5.292084 -0.0334,5.621607 -0.71925,6.992339 -0.49079,0.980857 -1.32059,1.848379 -2.23331,2.334854 l -0.74208,0.395526 -28.456001,-0.03099 c -15.6508,-0.01705 -40.700943,-0.05966 -55.666984,-0.0947 z"
         id="path33"
         inkscape:connector-curvature="0"
         transform="matrix(0.28934892,0,0,0.28934892,57.001192,171.38913)" />
      <path
         style="fill:#000000;stroke-width:0.03340869"
         d="M 121.39253,17.337595 V 11.84489 h 1.38896 1.38896 v 5.492705 5.492704 h -1.38896 -1.38896 z"
         id="path35"
         inkscape:connector-curvature="0"
         transform="matrix(0.28934892,0,0,0.28934892,57.001192,171.38913)" />
      <path
         style="fill:#000000;stroke-width:0.03340869"
         d="M 121.39253,9.6983162 V 8.3093565 h 1.38896 1.38896 v 1.3889597 1.3889598 h -1.38896 -1.38896 z"
         id="path37"
         inkscape:connector-curvature="0"
         transform="matrix(0.28934892,0,0,0.28934892,57.001192,171.38913)" />
      <path
         style="fill:#000000;stroke-width:0.03340869"
         d="m 126.06783,22.35679 c 0.003,-0.420929 0.21334,-0.730907 1.89442,-2.791509 l 1.89106,-2.318001 -0.49329,-0.586188 c -0.2713,-0.322403 -1.12297,-1.324862 -1.89259,-2.227686 -1.23781,-1.452055 -1.39951,-1.696144 -1.40113,-2.115007 l -0.002,-0.473509 h 1.42346 1.42347 l 1.31995,1.578364 c 0.72598,0.8681 1.3781,1.574765 1.44916,1.570368 0.0711,-0.0044 0.71345,-0.714661 1.42754,-1.578363 l 1.29833,-1.570369 h 1.44802 1.44802 v 0.451879 c 0,0.397391 -0.20935,0.698145 -1.7362,2.494256 -0.95491,1.123307 -1.81251,2.139593 -1.90577,2.258413 -0.15033,0.191524 0.0467,0.48048 1.7362,2.546653 1.66752,2.03925 1.90577,2.387098 1.90577,2.782412 v 0.451796 h -1.43608 -1.43608 L 133.082,21.188802 c -0.74155,-0.902824 -1.38799,-1.640586 -1.43654,-1.639472 -0.0486,0.0011 -0.68095,0.739788 -1.40532,1.641498 l -1.31706,1.639471 h -1.4293 -1.4293 z"
         id="path39"
         inkscape:connector-curvature="0"
         transform="matrix(0.28934892,0,0,0.28934892,57.001192,171.38913)" />
    </g>
  </g>
</svg>
