<?xml version="1.0" encoding="UTF-8" standalone="no"?>
<!-- Created with Inkscape (http://www.inkscape.org/) -->

<svg
   xmlns:dc="http://purl.org/dc/elements/1.1/"
   xmlns:cc="http://creativecommons.org/ns#"
   xmlns:rdf="http://www.w3.org/1999/02/22-rdf-syntax-ns#"
   xmlns:svg="http://www.w3.org/2000/svg"
   xmlns="http://www.w3.org/2000/svg"
   xmlns:sodipodi="http://sodipodi.sourceforge.net/DTD/sodipodi-0.dtd"
   xmlns:inkscape="http://www.inkscape.org/namespaces/inkscape"
   width="36.343002mm"
   height="8.1536684mm"
   viewBox="0 0 36.343002 8.1536684"
   version="1.1"
   id="svg8"
   inkscape:version="0.92.1 r15371"
   sodipodi:docname="logo.svg"
   inkscape:export-filename="C:\Users\AMF\Documents\logo.png"
   inkscape:export-xdpi="16.620001"
   inkscape:export-ydpi="16.620001">
  <defs
     id="defs2" />
  <sodipodi:namedview
     id="base"
     pagecolor="#000000"
     bordercolor="#666666"
     borderopacity="1.0"
     inkscape:pageopacity="0"
     inkscape:pageshadow="2"
     inkscape:zoom="7.9195959"
     inkscape:cx="54.444666"
     inkscape:cy="7.178593"
     inkscape:document-units="mm"
     inkscape:current-layer="text12"
     showgrid="false"
     inkscape:snap-page="false"
     inkscape:window-width="1920"
     inkscape:window-height="1001"
     inkscape:window-x="-9"
     inkscape:window-y="-9"
     inkscape:window-maximized="1"
     inkscape:pagecheckerboard="true"
     units="mm"
     fit-margin-top="0"
     fit-margin-left="0"
     fit-margin-right="0"
     fit-margin-bottom="0" />
  <metadata
     id="metadata5">
    <rdf:RDF>
      <cc:Work
         rdf:about="">
        <dc:format>image/svg+xml</dc:format>
        <dc:type
           rdf:resource="http://purl.org/dc/dcmitype/StillImage" />
        <dc:title />
      </cc:Work>
    </rdf:RDF>
  </metadata>
  <g
     inkscape:label="Layer 1"
     inkscape:groupmode="layer"
     id="layer1"
     transform="translate(-2.1793068,-89.078771)">
    <g
       aria-label="ELVN0Six"
       style="font-style:normal;font-variant:normal;font-weight:900;font-stretch:normal;font-size:10.58333302px;line-height:1.25;font-family:'Orbitron Black';-inkscape-font-specification:'Orbitron Black, Heavy';font-variant-ligatures:normal;font-variant-caps:normal;font-variant-numeric:normal;text-align:start;letter-spacing:0px;word-spacing:0px;writing-mode:lr-tb;text-anchor:start;fill:#000000;fill-opacity:1;stroke:none;stroke-width:0.26458332"
       id="text12"
       transform="matrix(0.91440926,0,0,0.91440926,-49.943111,-67.641037)">
      <path
         d="m 61.588322,173.04339 v 1.07527 h -3.50152 v 0.86848 h 2.81914 v 1.07527 h -2.81914 v 0.86848 h 3.50152 v 1.07527 h -4.58369 v -4.96277 z"
         style="fill:#ffffff;stroke-width:0.17231841"
         id="path45"
         inkscape:connector-curvature="0" />
      <path
         d="m 62.275022,178.00616 v -4.96966 h 1.06838 v 3.89439 h 3.89441 v 1.07527 z"
         style="fill:#ffffff;stroke-width:0.17231841"
         id="path47"
         inkscape:connector-curvature="0" />
      <path
         d="m 69.430582,176.64829 2.08162,-3.6049 h 1.23381 l -2.8743,4.96277 h -0.88916 l -2.87429,-4.96277 h 1.2407 z"
         style="fill:#ffffff;stroke-width:0.17231841"
         id="path49"
         inkscape:connector-curvature="0" />
      <path
         d="m 77.053352,176.3519 v -3.30851 h 1.08216 v 4.96277 h -1.10284 l -2.79158,-3.3223 v 3.3223 h -1.06838 v -4.96277 h 1.10285 z"
         style="fill:#ffffff;fill-opacity:1;stroke-width:0.17231841"
         id="path51"
         inkscape:connector-curvature="0" />
      <path
         d="m 79.820192,171.38975 h 3.19258 q 0.46157,0 0.79236,0.41352 0.33081,0.40434 0.33081,0.9557 v 3.82282 q 0,0.55137 -0.33849,0.99246 -0.3308,0.43191 -0.78468,0.43191 h -3.19258 q -0.45388,0 -0.79237,-0.43191 -0.33079,-0.44109 -0.33079,-0.99246 v -3.82282 q 0,-0.55136 0.33079,-0.9557 0.33079,-0.41352 0.79237,-0.41352 z m 0.68468,5.11853 h 2.45404 v -2.46279 z m 1.82322,-3.67579 h -2.45405 v 2.46277 z"
         style="fill:#0044a9;fill-opacity:1;stroke-width:0.21019886"
         id="path53"
         inkscape:connector-curvature="0" />
      <path
         d="m 91.355922,173.08922 v 0.76962 h -1.78752 v -0.67773 h -3.06038 v 1.44736 h 3.48773 c 0.37374,0 0.69233,0.16848 0.95579,0.50544 0.26959,0.32929 0.40438,0.72751 0.40438,1.19465 v 2.27736 c 0,0.46714 -0.13479,0.86918 -0.40438,1.20613 -0.26346,0.3293 -0.58205,0.49408 -0.95579,0.49395 l -31.63438,-0.0109 c -0.37375,-1.3e-4 -0.69541,-0.16465 -0.96499,-0.49394 -0.26346,-0.32929 -0.39519,-0.73133 -0.39519,-1.20614 v -0.0919 h 1.42451 v 0 l 31.1427,0.0109 c 0,-0.69785 0,-1.3957 0,-2.09355 h -3.46934 c -0.37374,0 -0.6954,-0.16465 -0.96499,-0.49395 -0.26345,-0.32929 -0.39518,-0.73134 -0.39518,-1.20614 v -1.63116 c 0,-0.4748 0.13173,-0.87685 0.39518,-1.20614 0.26959,-0.3293 0.59125,-0.49395 0.96499,-0.49395 h 3.89669 c 0.37374,0 0.69233,0.16848 0.95579,0.50544 0.26959,0.32929 0.40438,0.72751 0.40438,1.19465 z"
         style="font-size:14.11111069px;fill:#ffffff;fill-opacity:1;stroke-width:0.19265074"
         id="path55"
         inkscape:connector-curvature="0"
         sodipodi:nodetypes="scccccscsscsscscccccscsscsscs" />
      <path
         d="m 92.113802,178.00616 v -3.19823 h 0.84367 v 3.19823 z m 0,-4.24593 h 0.84367 v 0.84919 h -0.84367 z"
         style="font-size:8.46666622px;fill:#ffffff;fill-opacity:1;stroke-width:0.17231841"
         id="path57"
         inkscape:connector-curvature="0" />
      <path
         d="m 95.874742,174.80793 h 0.87124 v 0.27571 l -1.10284,1.29583 0.60656,0.73891 0.49628,0.61207 v 0.27571 h -0.86573 l -0.78302,-0.95947 -0.78301,0.95947 h -0.86573 v -0.27571 l 1.10284,-1.35098 -1.10284,-1.29583 v -0.27571 h 0.86573 l 0.78301,0.92638 z"
         style="font-size:8.46666622px;fill:#ffffff;fill-opacity:1;stroke-width:0.17231841"
         id="path59"
         inkscape:connector-curvature="0" />
      <g
         aria-label="AMF"
         style="font-style:normal;font-variant:normal;font-weight:bold;font-stretch:normal;font-size:1.76253426px;line-height:1.25;font-family:Kalam;-inkscape-font-specification:'Kalam, Bold';font-variant-ligatures:normal;font-variant-caps:normal;font-variant-numeric:normal;font-feature-settings:normal;text-align:start;letter-spacing:0px;word-spacing:0px;writing-mode:lr-tb;text-anchor:start;fill:#808080;fill-opacity:1;stroke:none;stroke-width:0.03497528"
         id="text64"
         transform="translate(-4.2368941,-1.0333932)">
        <path
           d="m 90.931058,178.45752 q 0.0705,0 0.100464,0.0141 0.03173,0.0123 0.03173,0.0476 0,0.0476 -0.153341,0.0969 0.0035,0.13396 0.0035,0.25733 0,0.12162 -0.01939,0.18331 -0.01939,0.0599 -0.06169,0.0599 -0.0423,0 -0.06698,-0.0423 -0.02291,-0.0441 -0.03878,-0.14276 -0.0141,-0.0987 -0.02996,-0.26086 -0.179779,0.0405 -0.259093,0.0652 -0.137477,0.3807 -0.183303,0.3807 -0.03701,0 -0.0987,-0.0494 -0.05993,-0.0494 -0.05993,-0.10223 0,-0.03 0.06874,-0.18682 -0.02996,-0.0194 -0.05288,-0.0546 -0.02115,-0.037 -0.02115,-0.0705 0,-0.0582 0.174491,-0.11104 0.0141,-0.0352 0.0282,-0.0793 0.01586,-0.0458 0.07579,-0.2115 0.06169,-0.16568 0.09694,-0.27672 0.01586,-0.0529 0.109277,-0.0987 0.09518,-0.0458 0.148053,-0.0458 0.06169,0 0.109277,0.17097 0.04935,0.17096 0.06874,0.45649 z m -0.407146,0.03 q 0.05288,-0.007 0.153341,-0.0176 -0.0053,-0.0511 -0.01762,-0.17449 -0.01058,-0.12338 -0.01586,-0.17801 -0.02996,0.0987 -0.119853,0.37013 z"
           style="font-style:normal;font-variant:normal;font-weight:bold;font-stretch:normal;font-size:1.76253426px;font-family:Kalam;-inkscape-font-specification:'Kalam, Bold';font-variant-ligatures:normal;font-variant-caps:normal;font-variant-numeric:normal;font-feature-settings:normal;text-align:start;writing-mode:lr-tb;text-anchor:start;fill:#808080;fill-opacity:1;stroke-width:0.03497528"
           id="path4493"
           inkscape:connector-curvature="0" />
        <path
           d="m 91.461333,177.8283 q 0.03349,0 0.130427,0.0723 0.0987,0.0705 0.0987,0.10576 0,0.0617 0.04054,0.20269 0.04054,0.141 0.09341,0.25556 0.05288,-0.0617 0.178016,-0.22736 0.126902,-0.16744 0.213267,-0.26438 0.08636,-0.0969 0.128665,-0.0969 0.0423,0 0.08813,0.0476 0.04583,0.0476 0.04583,0.0952 0,0.0476 -0.0141,0.12338 -0.0141,0.074 -0.03173,0.13924 -0.01586,0.0634 -0.04759,0.17449 -0.02996,0.11104 -0.04759,0.17626 -0.01586,0.0634 -0.03349,0.13747 -0.01763,0.0723 -0.0282,0.11457 -0.0088,0.0405 -0.02115,0.0864 -0.01058,0.0441 -0.01939,0.0687 -0.0088,0.0229 -0.01939,0.0423 -0.01939,0.037 -0.05464,0.037 -0.03525,0 -0.0705,-0.0687 -0.03349,-0.0705 -0.03349,-0.14629 0,-0.18683 0.107515,-0.49528 -0.02996,0.0388 -0.08636,0.11457 -0.0564,0.074 -0.0846,0.10928 -0.02644,0.0335 -0.06698,0.0793 -0.07226,0.0793 -0.141003,0.0793 -0.09165,0 -0.130427,-0.0723 -0.01939,-0.037 -0.05288,-0.16568 -0.03173,-0.13043 -0.04583,-0.17978 -0.02291,0.18154 -0.06169,0.3296 -0.03878,0.14805 -0.05111,0.19388 -0.01234,0.0458 -0.03349,0.11104 -0.03525,0.11103 -0.06345,0.11103 -0.03172,0 -0.08813,-0.0828 -0.05464,-0.0846 -0.05464,-0.13219 0,-0.0476 0.102227,-0.47589 0.103989,-0.42829 0.103989,-0.5411 0,-0.0582 0.05111,-0.0582 z"
           style="font-style:normal;font-variant:normal;font-weight:bold;font-stretch:normal;font-size:1.76253426px;font-family:Kalam;-inkscape-font-specification:'Kalam, Bold';font-variant-ligatures:normal;font-variant-caps:normal;font-variant-numeric:normal;font-feature-settings:normal;text-align:start;writing-mode:lr-tb;text-anchor:start;fill:#808080;fill-opacity:1;stroke-width:0.03497528"
           id="path4495"
           inkscape:connector-curvature="0" />
        <path
           d="m 92.735397,177.93758 q 0.01939,-0.0582 0.112803,-0.074 0.09341,-0.0159 0.282005,-0.0159 0.190354,0 0.290818,0.0317 0.100465,0.03 0.100465,0.0864 0,0.0264 -0.02115,0.0388 -0.01939,0.0106 -0.03525,0.0176 -0.0141,0.005 -0.04054,0.0106 -0.02468,0.005 -0.04583,0.0106 -0.02115,0.004 -0.0564,0.007 -0.03349,0.004 -0.05816,0.007 -0.02468,0.002 -0.06521,0.007 -0.04054,0.004 -0.07403,0.007 -0.03349,0.004 -0.176253,0.0264 v 0.002 q 0,0.0635 -0.05464,0.33664 0.02291,0.002 0.08284,0.002 0.06169,0 0.16039,-0.009 0.0987,-0.0106 0.128665,-0.0106 0.03173,0 0.05288,0.0159 0.02115,0.0159 0.02115,0.0353 0,0.0476 -0.0564,0.0846 -0.0564,0.037 -0.141003,0.0582 -0.169203,0.0423 -0.297868,0.0458 -0.05288,0.22385 -0.06521,0.27496 -0.01058,0.0494 -0.02291,0.0952 -0.02291,0.0899 -0.0423,0.0899 -0.03701,0 -0.100464,-0.0828 -0.06345,-0.0828 -0.06345,-0.12338 0,-0.0705 0.08636,-0.44769 0.08813,-0.37718 0.09341,-0.47412 v -0.0141 q 0,-0.0229 0.0053,-0.0388 z"
           style="font-style:normal;font-variant:normal;font-weight:bold;font-stretch:normal;font-size:1.76253426px;font-family:Kalam;-inkscape-font-specification:'Kalam, Bold';font-variant-ligatures:normal;font-variant-caps:normal;font-variant-numeric:normal;font-feature-settings:normal;text-align:start;writing-mode:lr-tb;text-anchor:start;fill:#808080;fill-opacity:1;stroke-width:0.03497528"
           id="path4497"
           inkscape:connector-curvature="0" />
      </g>
      <path
         style="opacity:1;fill:#ffffff;fill-opacity:1;fill-rule:nonzero;stroke:#4d4d4d;stroke-width:0.09544748;stroke-linecap:butt;stroke-linejoin:miter;stroke-miterlimit:4;stroke-dasharray:none;stroke-dashoffset:0;stroke-opacity:1;paint-order:fill markers stroke"
         d="m 79.041881,9.2493436 v -4.197729 h 4.166879 c 2.291783,0 4.166879,0.014528 4.166879,0.032285 0,0.017757 -1.875096,1.9067347 -4.166879,4.1977291 l -4.166879,4.1654443 z"
         id="path4496"
         inkscape:connector-curvature="0"
         transform="matrix(0.28934892,0,0,0.28934892,57.001192,171.38913)" />
      <path
         style="opacity:1;fill:#ffffff;fill-opacity:1;fill-rule:nonzero;stroke:#4d4d4d;stroke-width:0.09544748;stroke-linecap:butt;stroke-linejoin:miter;stroke-miterlimit:4;stroke-dasharray:none;stroke-dashoffset:0;stroke-opacity:1;paint-order:fill markers stroke"
         d="m 81.314724,17.646237 c 0,-0.01776 1.875095,-1.906735 4.166879,-4.197729 l 4.166879,-4.1654447 v 4.1977287 4.197729 h -4.166879 c -2.291784,0 -4.166879,-0.01453 -4.166879,-0.03228 z"
         id="path4498"
         inkscape:connector-curvature="0"
         transform="matrix(0.28934892,0,0,0.28934892,57.001192,171.38913)" />
      <path
         style="opacity:1;fill:#ffffff;fill-opacity:1;fill-rule:nonzero;stroke:#4d4d4d;stroke-width:0.09544748;stroke-linecap:butt;stroke-linejoin:miter;stroke-miterlimit:4;stroke-dasharray:none;stroke-dashoffset:0;stroke-opacity:1;paint-order:fill markers stroke"
         d="M 43.370869,30.686135 3.5961123,30.621101 2.9647669,30.284271 C 1.3068902,29.399773 0.28773242,27.655826 0.08082312,25.349367 L 0.01569042,24.62332 H 56.322571 112.62945 v -3.657515 -3.657513 l -6.59756,-0.03586 -6.597555,-0.03586 -0.665952,-0.368962 C 97.51887,16.175341 96.558826,14.866316 96.150287,13.297831 95.883948,12.275286 95.880097,5.0546844 96.145363,4.0580568 96.572017,2.4550514 97.657251,1.0607711 98.98635,0.40802748 l 0.700523,-0.34404109 h 7.576147 7.57614 l 0.7268,0.34059852 c 1.375,0.64436359 2.5767,2.27243389 2.93888,3.98161609 0.10217,0.482114 0.1821,1.5567525 0.18334,2.4647478 l 0.002,1.6099306 h -3.03046 -3.03046 V 7.3244578 6.1880362 h -5.36643 -5.36644 v 2.5210563 2.5210565 l 6.53443,0.03589 6.53442,0.03589 0.72006,0.3536 c 1.31361,0.645067 2.45716,2.260103 2.82326,3.987278 0.2532,1.194545 0.2532,9.569136 0,10.763681 -0.37734,1.780207 -1.42541,3.238666 -2.82119,3.925863 l -0.84295,0.415015 -15.849491,0.0019 c -8.717221,0.001 -33.748134,-0.02737 -55.62425,-0.06313 z"
         id="path4500"
         inkscape:connector-curvature="0"
         transform="matrix(0.28934892,0,0,0.28934892,57.001192,171.38913)" />
    </g>
  </g>
</svg>
