<svg width="20" height="20" xmlns="http://www.w3.org/2000/svg">
 <title/>
 <desc/>

 <g>
  <title>background</title>
  <rect fill="none" id="canvas_background" height="402" width="582" y="-1" x="-1"/>
 </g>
 <g>
  <title>Layer 1</title>
  <path fill="#f00a46" id="Shape" d="m17.4,11c0,-0.3 0.1,-0.6 0.1,-1c0,-0.4 0,-0.7 -0.1,-1l2.1,-1.7c0.2,-0.2 0.2,-0.4 0.1,-0.6l-2,-3.5c-0.1,-0.1 -0.3,-0.2 -0.6,-0.1l-2.5,1c-0.5,-0.4 -1.1,-0.7 -1.7,-1l-0.4,-2.6c0.1,-0.3 -0.2,-0.5 -0.4,-0.5l-4,0c-0.2,0 -0.5,0.2 -0.5,0.4l-0.4,2.7c-0.6,0.2 -1.1,0.6 -1.7,1l-2.4,-1c-0.3,-0.1 -0.5,0 -0.7,0.2l-2,3.5c-0.1,0.1 0,0.4 0.2,0.6l2.1,1.6c0,0.3 -0.1,0.6 -0.1,1c0,0.4 0,0.7 0.1,1l-2.1,1.7c-0.2,0.2 -0.2,0.4 -0.1,0.6l2,3.5c0.1,0.1 0.3,0.2 0.6,0.1l2.5,-1c0.5,0.4 1.1,0.7 1.7,1l0.4,2.6c0,0.2 0.2,0.4 0.5,0.4l4,0c0.2,0 0.5,-0.2 0.5,-0.4l0.4,-2.6c0.6,-0.3 1.2,-0.6 1.7,-1l2.5,1c0.2,0.1 0.5,0 0.6,-0.2l2,-3.5c0.1,-0.2 0.1,-0.5 -0.1,-0.6l-2.3,-1.6l0,0zm-7.4,2.5c-1.9,0 -3.5,-1.6 -3.5,-3.5c0,-1.9 1.6,-3.5 3.5,-3.5c1.9,0 3.5,1.6 3.5,3.5c0,1.9 -1.6,3.5 -3.5,3.5l0,0z"/>
 </g>
</svg>